<svg xmlns="http://www.w3.org/2000/svg" viewBox="0 0 1200 700" preserveAspectRatio="none"><defs><linearGradient id="sky" x2="0" y2="1"><stop stop-color="#0d1533"/><stop offset=".65" stop-color="#272747"/><stop offset="1" stop-color="#5b3a58"/></linearGradient><linearGradient id="water" x2="0" y2="1"><stop stop-color="#333650"/><stop offset="1" stop-color="#1e2941"/></linearGradient><radialGradient id="moon"><stop stop-color="#ffe4a3" stop-opacity=".16"/><stop offset="1" stop-color="#ffe4a3" stop-opacity="0"/></radialGradient></defs><path fill="url(#sky)" d="M0 0h1200v700H0z"/><circle cx="1030" cy="100" r="120" fill="url(#moon)"/><path d="M1051 56a31 31 0 1 0 17 49 30 30 0 0 1-17-49" fill="#ffe6ab"/><g fill="#fff0c4" opacity=".65"><circle cx="70" cy="65" r="1.4"/><circle cx="240" cy="143" r="1"/><circle cx="430" cy="46" r="1.6"/><circle cx="697" cy="107" r="1.2"/><circle cx="854" cy="43" r="1.3"/><circle cx="1145" cy="270" r="1"/><circle cx="139" cy="270" r="1.4"/><circle cx="935" cy="219" r="1"/><circle cx="553" cy="171" r="1"/><circle cx="337" cy="310" r="1.3"/><circle cx="779" cy="287" r="1.5"/></g><path d="M0 529Q100 460 197 513T380 504T565 516T778 490T998 514T1200 486V590H0" fill="#242c43"/><path d="M0 550Q125 510 247 543T516 540T800 551T1044 530T1200 554V610H0" fill="#192a3b"/><path fill="url(#water)" d="M0 570h1200v130H0z"/><g stroke="#b6acc0" opacity=".15" stroke-linecap="round"><path d="M0 596h97m30 10h135m160-18h110m84 30h157m57-25h96m81 22h105M70 640h155m98-16h126m54 30h146m119-14h137m92 12h124"/></g><path d="M0 654Q300 626 600 654T1200 640V700H0" fill="#142333"/><g stroke="#775c69" stroke-width="3"><path d="M15 533v45m98-45v45m-103-45h110M1080 530v48m97-48v48m-102-48h109"/></g><path d="M7 533l17-30h78l18 30z" fill="#ce8476"/><path d="M1074 530l18-31h71l21 31z" fill="#d0aa70"/><path d="M24 537h78v30H24zM1091 535h73v30h-73z" fill="#ffd489" opacity=".65"/><g fill="#f8ca83"><ellipse cx="152" cy="551" rx="7" ry="10"/><ellipse cx="194" cy="555" rx="7" ry="10"/><ellipse cx="236" cy="558" rx="7" ry="10"/><ellipse cx="956" cy="552" rx="7" ry="10"/><ellipse cx="998" cy="549" rx="7" ry="10"/><ellipse cx="1040" cy="543" rx="7" ry="10"/></g><g stroke="#ffe2a0" opacity=".13" stroke-width="5"><path d="M28 585h64m-59 12h52m-44 12h33M1098 584h57m-51 12h45m-38 12h26"/></g></svg>
